<svg width="49" height="49" viewBox="0 0 49 49" fill="none" xmlns="http://www.w3.org/2000/svg">
<path opacity="0.5" d="M4.08331 24.5C4.08331 14.8755 4.08331 10.0632 7.07327 7.07329C10.0632 4.08333 14.8755 4.08333 24.5 4.08333C34.1244 4.08333 38.9368 4.08333 41.9266 7.07329C44.9166 10.0632 44.9166 14.8755 44.9166 24.5C44.9166 34.1244 44.9166 38.9368 41.9266 41.9266C38.9368 44.9167 34.1244 44.9167 24.5 44.9167C14.8755 44.9167 10.0632 44.9167 7.07327 41.9266C4.08331 38.9368 4.08331 34.1244 4.08331 24.5Z" stroke="white" stroke-width="2"/>
<path d="M28.5833 16.3333V14.8021C27.7377 14.8021 27.0521 15.4876 27.0521 16.3333H28.5833ZM27.0521 32.6667C27.0521 33.5123 27.7377 34.1979 28.5833 34.1979C29.429 34.1979 30.1146 33.5123 30.1146 32.6667H27.0521ZM17.3541 16.3333L18.8157 15.8766C18.6159 15.2373 18.0239 14.8021 17.3541 14.8021C16.6844 14.8021 16.0924 15.2373 15.8926 15.8766L17.3541 16.3333ZM10.7884 32.2099C10.5362 33.0172 10.9861 33.8759 11.7932 34.1283C12.6004 34.3804 13.4593 33.9307 13.7115 33.1234L10.7884 32.2099ZM20.9967 33.1234C21.249 33.9307 22.1078 34.3804 22.915 34.1283C23.7223 33.8759 24.1721 33.0172 23.9199 32.2099L20.9967 33.1234ZM28.5833 24.5H27.0521V26.0312H28.5833V24.5ZM35.4515 33.4782C35.8996 34.1955 36.8443 34.4133 37.5615 33.9652C38.2788 33.517 38.4966 32.5723 38.0485 31.8551L35.4515 33.4782ZM15.8926 15.8766L12.5749 26.4933L15.498 27.4067L18.8157 16.7901L15.8926 15.8766ZM12.5749 26.4933L10.7884 32.2099L13.7115 33.1234L15.498 27.4067L12.5749 26.4933ZM15.8926 16.7901L19.2103 27.4067L22.1335 26.4933L18.8157 15.8766L15.8926 16.7901ZM19.2103 27.4067L20.9967 33.1234L23.9199 32.2099L22.1335 26.4933L19.2103 27.4067ZM14.0364 28.4812H20.6719V25.4187H14.0364V28.4812ZM28.5833 17.8646H32.6666V14.8021H28.5833V17.8646ZM30.1146 24.5V16.3333H27.0521V24.5H30.1146ZM35.2187 20.4167C35.2187 21.8262 34.0762 22.9687 32.6666 22.9687V26.0312C35.7675 26.0312 38.2812 23.5175 38.2812 20.4167H35.2187ZM32.6666 17.8646C34.0762 17.8646 35.2187 19.0072 35.2187 20.4167H38.2812C38.2812 17.3158 35.7675 14.8021 32.6666 14.8021V17.8646ZM27.0521 16.3333V32.6667H30.1146V16.3333H27.0521ZM32.6666 22.9687H31.6458V26.0312H32.6666V22.9687ZM31.6458 22.9687H28.5833V26.0312H31.6458V22.9687ZM30.3473 25.3116L35.4515 33.4782L38.0485 31.8551L32.9443 23.6884L30.3473 25.3116Z" fill="white"/>
</svg>
