<svg width="51" height="51" viewBox="0 0 51 51" fill="none" xmlns="http://www.w3.org/2000/svg">
<path d="M36.6824 28.9L38.8089 23.6595C39.3958 22.2133 40.9334 21.25 42.6553 21.25C45.448 21.25 47.42 23.6946 46.5369 26.0616L44.1581 32.4379C43.7435 33.5493 43.5362 34.105 43.2625 34.5774C42.149 36.4981 40.0792 37.8309 37.6877 38.1673C37.0997 38.25 36.4442 38.25 35.1331 38.25H34H14.6335C14.5018 38.25 14.436 38.25 14.3763 38.2491C11.1885 38.2045 8.36972 36.3891 7.31419 33.7012C7.29445 33.6509 7.27363 33.5952 7.23202 33.4836L4.4631 26.0616C3.57997 23.6946 5.55195 21.25 8.34465 21.25C10.0666 21.25 11.6042 22.2133 12.1911 23.6595L14.5246 29.41C14.737 29.9334 14.8432 30.195 14.9971 30.409C15.3564 30.9085 15.9209 31.2622 16.569 31.3937C16.8465 31.45 17.158 31.45 17.7811 31.45H32.6117C33.8211 31.45 34.4259 31.45 34.9314 31.2415C35.2076 31.1278 35.4586 30.9706 35.6724 30.7774C36.064 30.4236 36.2701 29.9158 36.6824 28.9Z" stroke="white" stroke-width="2" stroke-linecap="round"/>
<path d="M25.5 6.90625C24.6198 6.90625 23.9063 7.61981 23.9063 8.5C23.9063 9.3802 24.6198 10.0938 25.5 10.0938V6.90625ZM17.251 10.3024C18.1202 10.1637 18.7125 9.34673 18.5739 8.47752C18.4353 7.60831 17.6182 7.01603 16.749 7.15464L17.251 10.3024ZM14.3438 25.5V18.2143H11.1563V25.5H14.3438ZM36.6563 18.2143V25.5H39.8438V18.2143H36.6563ZM28.05 10.0938C30.4972 10.0938 32.1797 10.0968 33.4437 10.2587C34.6694 10.4156 35.2582 10.6968 35.6571 11.0767L37.8554 8.76854C36.7606 7.72584 35.4004 7.29568 33.8485 7.09699C32.3349 6.90317 30.4113 6.90625 28.05 6.90625V10.0938ZM39.8438 18.2143C39.8438 15.9718 39.8476 14.1218 39.6415 12.6619C39.4277 11.1479 38.9612 9.82165 37.8554 8.76854L35.6571 11.0767C36.0451 11.4462 36.3254 11.9762 36.4852 13.1075C36.6524 14.2929 36.6563 15.8774 36.6563 18.2143H39.8438ZM14.3438 18.2143C14.3438 15.8774 14.3475 14.2929 14.5148 13.1075C14.6745 11.9762 14.9549 11.4462 15.3429 11.0767L13.1446 8.76854C12.0389 9.82165 11.5724 11.1479 11.3586 12.6619C11.1525 14.1218 11.1563 15.9718 11.1563 18.2143H14.3438ZM25.5 10.0938H28.05V6.90625H25.5V10.0938ZM16.749 7.15464C15.3625 7.37577 14.1428 7.81792 13.1446 8.76854L15.3429 11.0767C15.7083 10.7287 16.2313 10.465 17.251 10.3024L16.749 7.15464Z" fill="white"/>
<path d="M38.25 42.5V38.25M12.75 42.5V39.6667" stroke="white" stroke-width="2" stroke-linecap="round"/>
</svg>
