<svg width="39" height="44" viewBox="0 0 39 44" fill="none" xmlns="http://www.w3.org/2000/svg">
<path d="M38 11.3705L20.407 1.34427C20.076 1.15572 19.9107 1.06146 19.7354 1.02451C19.58 0.991829 19.42 0.991829 19.2646 1.02451C19.0893 1.06146 18.924 1.15572 18.593 1.34427L1 11.3705M38 11.3705V31.3606C38 31.7598 38 31.9592 37.9422 32.1375C37.8911 32.2952 37.8075 32.44 37.6969 32.5623C37.572 32.7007 37.4003 32.7987 37.057 32.9943L19.5 43M38 11.3705L19.5 20.7422M1 11.3705V31.3606C1 31.7598 0.999999 31.9592 1.05781 32.1375C1.10892 32.2952 1.19263 32.44 1.30317 32.5623C1.42804 32.7007 1.59963 32.7987 1.94304 32.9943L19.5 43M1 11.3705L19.5 20.7422M19.5 43V20.7422" stroke="white" stroke-width="2" stroke-linecap="round" stroke-linejoin="round"/>
</svg>
