<svg width="32" height="32" viewBox="0 0 32 32" fill="none" xmlns="http://www.w3.org/2000/svg">
<path fill-rule="evenodd" clip-rule="evenodd" d="M0.25 30C0.25 30.9665 1.03351 31.75 2 31.75H9C9.96649 31.75 10.75 30.9665 10.75 30C10.75 29.0335 9.96649 28.25 9 28.25H6.22487L11.9874 22.4874C12.6708 21.804 12.6708 20.696 11.9874 20.0126C11.304 19.3292 10.196 19.3292 9.51256 20.0126L3.75 25.7751V23C3.75 22.0335 2.96649 21.25 2 21.25C1.03351 21.25 0.25 22.0335 0.25 23V30ZM23 31.75H30C30.9665 31.75 31.75 30.9665 31.75 30V23C31.75 22.0335 30.9665 21.25 30 21.25C29.0335 21.25 28.25 22.0335 28.25 23V25.7751L22.4874 20.0126C21.8041 19.3292 20.6959 19.3292 20.0126 20.0126C19.3292 20.696 19.3292 21.804 20.0126 22.4874L25.7752 28.25H23C22.0335 28.25 21.25 29.0335 21.25 30C21.25 30.9665 22.0335 31.75 23 31.75ZM11.9874 11.9874C12.6708 11.3041 12.6708 10.1959 11.9874 9.51258L6.22487 3.75H9C9.96649 3.75 10.75 2.96652 10.75 2C10.75 1.03348 9.96649 0.25 9 0.25H2C1.03351 0.25 0.25 1.03348 0.25 2V9C0.25 9.96652 1.03351 10.75 2 10.75C2.96649 10.75 3.75 9.96652 3.75 9V6.22485L9.51256 11.9874C10.196 12.6708 11.304 12.6708 11.9874 11.9874ZM20.0126 11.9874C20.6959 12.6708 21.8041 12.6708 22.4874 11.9874L28.25 6.22485V9C28.25 9.96652 29.0335 10.75 30 10.75C30.9665 10.75 31.75 9.96652 31.75 9V2C31.75 1.03348 30.9665 0.25 30 0.25H23C22.0335 0.25 21.25 1.03348 21.25 2C21.25 2.96652 22.0335 3.75 23 3.75H25.7752L20.0126 9.51258C19.3292 10.1959 19.3292 11.3041 20.0126 11.9874Z" fill="white"/>
</svg>
