<svg width="37" height="37" viewBox="0 0 37 37" fill="none" xmlns="http://www.w3.org/2000/svg">
<path fill-rule="evenodd" clip-rule="evenodd" d="M9.25 11.5625C7.9735 11.5625 6.9375 10.5265 6.9375 9.25C6.9375 7.9735 7.9735 6.9375 9.25 6.9375C10.5265 6.9375 11.5625 7.9735 11.5625 9.25C11.5625 10.5265 10.5265 11.5625 9.25 11.5625ZM9.25 4.625C6.69584 4.625 4.625 6.69584 4.625 9.25C4.625 11.8042 6.69584 13.875 9.25 13.875C11.8042 13.875 13.875 11.8042 13.875 9.25C13.875 6.69584 11.8042 4.625 9.25 4.625ZM34.6875 19.8042L27.75 12.7188L16.2557 24.4096L11.5625 19.6562L2.3125 28.1397V4.625C2.3125 3.3485 3.3485 2.3125 4.625 2.3125H32.375C33.6515 2.3125 34.6875 3.3485 34.6875 4.625V19.8042ZM34.6875 32.375C34.6875 33.6515 33.6515 34.6875 32.375 34.6875H26.3995L17.8802 26.0561L27.75 16.1863L34.6875 23.1238V32.375ZM4.625 34.6875C3.3485 34.6875 2.3125 33.6515 2.3125 32.375V31.2893L11.4989 23.0614L23.1262 34.6875H4.625ZM32.375 0H4.625C2.07084 0 0 2.07084 0 4.625V32.375C0 34.9292 2.07084 37 4.625 37H32.375C34.9292 37 37 34.9292 37 32.375V4.625C37 2.07084 34.9292 0 32.375 0Z" fill="white"/>
</svg>
