<svg width="49" height="49" viewBox="0 0 49 49" fill="none" xmlns="http://www.w3.org/2000/svg">
<path d="M39.6234 14.5C40.0808 11.8905 38.0726 9.5 35.4234 9.5H13.5758C10.9265 9.5 8.91845 11.8905 9.37569 14.5" stroke="white" stroke-width="2"/>
<path d="M35.4998 9.5C35.5566 8.98184 35.585 8.7227 35.5854 8.5087C35.59 6.46144 34.0478 4.74128 32.0122 4.52284C31.7994 4.5 31.5388 4.5 31.0176 4.5H17.982C17.4607 4.5 17.2 4.5 16.9872 4.52284C14.9517 4.74128 13.4096 6.46144 13.4141 8.50868C13.4145 8.7227 13.4429 8.9818 13.4997 9.5" stroke="white" stroke-width="2"/>
<path d="M29.6624 27.7318C30.7792 28.4242 30.7792 30.2164 29.6624 30.9088L22.9192 35.089C21.8338 35.7618 20.5 34.8862 20.5 33.5006V25.14C20.5 23.7546 21.8338 22.8788 22.9192 23.5516L29.6624 27.7318Z" stroke="white" stroke-width="2"/>
<path d="M5.26702 28.086C4.37496 21.7588 3.92894 18.5953 5.82464 16.5477C7.72034 14.5 11.0952 14.5 17.8448 14.5H31.1552C37.9048 14.5 41.2796 14.5 43.1754 16.5477C45.071 18.5953 44.625 21.7588 43.733 28.086L42.887 34.086C42.1874 39.0478 41.8378 41.5286 40.0434 43.0144C38.249 44.5 35.6024 44.5 30.3092 44.5H18.6907C13.3976 44.5 10.7511 44.5 8.95668 43.0144C7.1623 41.5286 6.81252 39.0478 6.11296 34.086L5.26702 28.086Z" stroke="white" stroke-width="2"/>
</svg>
