<svg width="37" height="37" viewBox="0 0 37 37" fill="none" xmlns="http://www.w3.org/2000/svg">
<path d="M28.3002 2.10319C28.6287 1.55562 29.339 1.37806 29.8866 1.7066L29.2916 2.69808C29.8866 1.7066 29.8866 1.7066 29.8866 1.7066L29.8887 1.70789L29.891 1.70936L29.8967 1.71283L29.9115 1.72195C29.9229 1.72902 29.9371 1.73802 29.9541 1.74898C29.988 1.77092 30.0329 1.8008 30.0871 1.83877C30.1955 1.91465 30.342 2.02333 30.5136 2.16634C30.856 2.45169 31.3038 2.87794 31.7498 3.45769C32.6483 4.62587 33.5312 6.40941 33.5312 8.86474C33.5312 11.3201 32.6483 13.1036 31.7498 14.2718C31.3038 14.8516 30.856 15.2778 30.5136 15.5631C30.342 15.7062 30.1955 15.8149 30.0871 15.8907C30.0329 15.9286 29.988 15.9586 29.9541 15.9804C29.9456 15.986 29.9379 15.9909 29.9308 15.9954C29.9237 16 29.9172 16.004 29.9115 16.0076L29.8967 16.0167L29.891 16.0201L29.8887 16.0216C29.8887 16.0216 29.8866 16.0228 29.2916 15.0314L29.8866 16.0228C29.339 16.3514 28.6287 16.1739 28.3002 15.6263C27.973 15.081 28.1477 14.3745 28.6899 14.0441L28.6984 14.0387C28.7097 14.0314 28.7309 14.0173 28.761 13.9963C28.8213 13.9541 28.9158 13.8845 29.0333 13.7867C29.269 13.5902 29.592 13.2842 29.9168 12.8619C30.56 12.0259 31.2187 10.7261 31.2187 8.86474C31.2187 7.00343 30.56 5.70363 29.9168 4.86765C29.592 4.44531 29.269 4.13927 29.0333 3.94285C28.9158 3.84495 28.8213 3.77539 28.761 3.73324C28.7309 3.7122 28.7097 3.69811 28.6984 3.69083L28.6899 3.68539C28.1477 3.35504 27.973 2.64847 28.3002 2.10319Z" fill="#1C274C"/>
<path d="M15.4167 15.0314C18.8224 15.0314 21.5833 12.2705 21.5833 8.86476C21.5833 5.459 18.8224 2.69809 15.4167 2.69809C12.0109 2.69809 9.25 5.459 9.25 8.86476C9.25 12.2705 12.0109 15.0314 15.4167 15.0314Z" fill="#1C274C"/>
<path d="M26.8033 4.78995C26.2557 4.4614 25.5454 4.63897 25.2169 5.18654L25.5995 6.76443L25.6116 6.77262C25.6296 6.78526 25.6638 6.81027 25.709 6.84793C25.8003 6.92392 25.9305 7.04688 26.0627 7.2187C26.3204 7.55364 26.5938 8.08261 26.5938 8.86476C26.5938 9.64692 26.3204 10.1759 26.0627 10.5108C25.9305 10.6826 25.8003 10.8056 25.709 10.8816C25.6638 10.9193 25.6296 10.9442 25.6116 10.9569L25.5995 10.9651C25.0629 11.2972 24.8911 12.0001 25.2169 12.543C25.5454 13.0906 26.2557 13.2681 26.8033 12.9396L26.2083 11.9481C26.8033 12.9396 26.8033 12.9396 26.8033 12.9396L26.8053 12.9383L26.8076 12.937L26.8124 12.934L26.8239 12.9269L26.8535 12.9081C26.8762 12.8935 26.9044 12.8746 26.9377 12.8514C27.0038 12.805 27.0902 12.7409 27.1895 12.6581C27.3873 12.4932 27.6424 12.25 27.8957 11.9208C28.4088 11.2536 28.9063 10.2409 28.9063 8.86476C28.9063 7.48859 28.4088 6.47588 27.8957 5.80874C27.6424 5.47952 27.3873 5.23633 27.1895 5.07142C27.0902 4.98865 27.0038 4.92452 26.9377 4.87814C26.9044 4.85493 26.8762 4.83606 26.8535 4.82141L26.8239 4.80259L26.8124 4.79549L26.8076 4.79253L26.8053 4.79119C26.8053 4.79119 26.8033 4.78994 26.2083 5.78142L26.8033 4.78995Z" fill="#1C274C"/>
<path opacity="0.5" d="M3.08331 26.5938C3.08331 30.4253 3.08331 33.5312 15.4166 33.5312C27.75 33.5312 27.75 30.4253 27.75 26.5938C27.75 22.7622 22.2282 19.6562 15.4166 19.6562C8.60513 19.6562 3.08331 22.7622 3.08331 26.5938Z" fill="#1C274C"/>
</svg>
